<svg xmlns="http://www.w3.org/2000/svg" viewBox="0 0 1200 1400" width="1200" height="1400" preserveAspectRatio="xMidYMid slice" xmlns:c2pa="http://c2pa.org/manifest"><metadata><c2pa:manifest>AAAWgmp1bWIAAAAeanVtZGMycGEAEQAQgAAAqgA4m3EDYzJwYQAAABZcanVtYgAAAEdqdW1kYzJtYQARABCAAACqADibcQN1cm46YzJwYTo2ZjA0ZTVmOC1kNjA1LTQ5ZTItYjU4OC0zMTRlZmM5ZTM3MzUAAAADl2p1bWIAAAApanVtZGMyYXMAEQAQgAAAqgA4m3EDYzJwYS5hc3NlcnRpb25zAAAAALxqdW1iAAAARGp1bWRjYm9yABEAEIAAAKoAOJtxE2MycGEuaW5ncmVkaWVudC52MwAAAAAYYzJzaEzM8UOJ0vCQISiYv4D/sM4AAABwY2JvcqNpZGM6Zm9ybWF0bWltYWdlL3N2Zyt4bWxqaW5zdGFuY2VJRHgseG1wOmlpZDowNDAxYzI1Yy0xMjg2LTRkNDYtOTBkMy02N2ZlYzY4NzZhYmRscmVsYXRpb25zaGlwaHBhcmVudE9mAAAB4mp1bWIAAABBanVtZGNib3IAEQAQgAAAqgA4m3ETYzJwYS5hY3Rpb25zLnYyAAAAABhjMnNoJAw6fgmHay6rZ28H2ytqDAAAAZljYm9yomdhY3Rpb25zgqJmYWN0aW9ua2MycGEub3BlbmVkanBhcmFtZXRlcnOha2luZ3JlZGllbnRzgaJjdXJseC1zZWxmI2p1bWJmPWMycGEuYXNzZXJ0aW9ucy9jMnBhLmluZ3JlZGllbnQudjNkaGFzaFggcg7cZktTJ7qBqjNd5mIaB4gMQ2nTmqtU9pcIEM37pGmkZmFjdGlvbngdY29tLmFudGhyb3BpYy5jbGF1ZGUucHJvdmlkZWRqcGFyYW1ldGVyc6F4H2NvbS5hbnRocm9waWMub3JpZ2luLWNvbmZpZGVuY2VndW5rbm93bmtkZXNjcmlwdGlvbnhmQ2xhdWRlIHByb3ZpZGVkIHRoaXMgZmlsZSBhdCB0aGUgcmVxdWVzdCBvZiBhIHVzZXIgYW5kIG1heSBoYXZlIGNyZWF0ZWQgb3IgbW9kaWZpZWQgdGhlIGZpbGUgY29udGVudHMubXNvZnR3YXJlQWdlbnShZG5hbWVmQ2xhdWRlcmFsbEFjdGlvbnNJbmNsdWRlZPUAAADIanVtYgAAAEBqdW1kY2JvcgARABCAAACqADibcRNjMnBhLmhhc2guZGF0YQAAAAAYYzJzaABHsuDEroLaUctSJLm/ssQAAACAY2JvcqVjYWxnZnNoYTI1NmNwYWRNAAAAAAAAAAAAAAAAAGRoYXNoWCB4NKUkGqXzL021ieyVGWAUvA4SdoHb9FBJz4lqwaLU/WRuYW1lbmp1bWJmIG1hbmlmZXN0amV4Y2x1c2lvbnOBomVzdGFydBi/Zmxlbmd0aBkeBAAAAj5qdW1iAAAAJ2p1bWRjMmNsABEAEIAAAKoAOJtxA2MycGEuY2xhaW0udjIAAAACD2Nib3KlY2FsZ2ZzaGEyNTZpc2lnbmF0dXJleE1zZWxmI2p1bWJmPS9jMnBhL3VybjpjMnBhOjZmMDRlNWY4LWQ2MDUtNDllMi1iNTg4LTMxNGVmYzllMzczNS9jMnBhLnNpZ25hdHVyZWppbnN0YW5jZUlEeCx4bXA6aWlkOmFkZDc1ZmMyLWE5MGMtNGMwNi05NWE4LWEwOTIzNTczNDA0ZXJjcmVhdGVkX2Fzc2VydGlvbnODomN1cmx4LXNlbGYjanVtYmY9YzJwYS5hc3NlcnRpb25zL2MycGEuaW5ncmVkaWVudC52M2RoYXNoWCByDtxmS1MnuoGqM13mYhoHiAxDadOaq1T2lwgQzfukaaJjdXJseCpzZWxmI2p1bWJmPWMycGEuYXNzZXJ0aW9ucy9jMnBhLmFjdGlvbnMudjJkaGFzaFgg4BuX38vKF4E0h6ItDbpnntbQSqclFpmFjf/GxdwxDLCiY3VybHgpc2VsZiNqdW1iZj1jMnBhLmFzc2VydGlvbnMvYzJwYS5oYXNoLmRhdGFkaGFzaFggPm/quMsnsj2WBcGnkEFboAX2mqvSrv/4bbPs+1+MYgd0Y2xhaW1fZ2VuZXJhdG9yX2luZm+jZG5hbWVvQW50aHJvcGljIEZpbGVzZ3ZlcnNpb25lMS4wLjBrc3BlY1ZlcnNpb25lMi40LjAAABA4anVtYgAAAChqdW1kYzJjcwARABCAAACqADibcQNjMnBhLnNpZ25hdHVyZQAAABAIY2JvctKEWQISogEmGCFZAgowggIGMIIBjaADAgECAhRA5aAK7sI50L64g/oGQgU9Z1UTADAKBggqhkjOPQQDAzBJMRcwFQYDVQQKEw5BbnRocm9waWMsIFBCQzEuMCwGA1UEAxMlQW50aHJvcGljIENvbnRlbnQgQ3JlZGVudGlhbHMgUm9vdCBDQTAeFw0yNjA4MDcxODQzNTZaFw0yODA4MDYxOTQzNTZaMEQxFzAVBgNVBAoTDkFudGhyb3BpYywgUEJDMSkwJwYDVQQDEyBBbnRocm9waWMgQ2xhdWRlIENvbnRlbnQgU2lnbmluZzBZMBMGByqGSM49AgEGCCqGSM49AwEHA0IABJh6CmvLUBgFFNU0vUKlOVtE6djd17L5SuwX0LemFisBM3dkd/3cyjxFA3Qo5S46fX0/ihY0VZ7mfb9KF703t5OjWDBWMA4GA1UdDwEB/wQEAwIHgDAVBgNVHSUEDjAMBgorBgEEAYPoXgIBMAwGA1UdEwEB/wQCMAAwHwYDVR0jBBgwFoAUzlHiBIFOZFsj+OPEz5o+nMHXXMIwCgYIKoZIzj0EAwMDZwAwZAIwMXMdFJ4BetLLVY7ORuE9noqbbAZOZn/aArXyTwFAZfKrPzxF2vPoJNf1+UCdg1XGAjBwX1zd9WGqYkqmL5SFqw1QySjr1zJfpJM9+1rdDwSPLMOPOjKuiXjoU/pUUeG9RwmhY3BhZFkNngAAAAAAAAAAAAAAAAAAAAAAAAAAAAAAAAAAAAAAAAAAAAAAAAAAAAAAAAAAAAAAAAAAAAAAAAAAAAAAAAAAAAAAAAAAAAAAAAAAAAAAAAAAAAAAAAAAAAAAAAAAAAAAAAAAAAAAAAAAAAAAAAAAAAAAAAAAAAAAAAAAAAAAAAAAAAAAAAAAAAAAAAAAAAAAAAAAAAAAAAAAAAAAAAAAAAAAAAAAAAAAAAAAAAAAAAAAAAAAAAAAAAAAAAAAAAAAAAAAAAAAAAAAAAAAAAAAAAAAAAAAAAAAAAAAAAAAAAAAAAAAAAAAAAAAAAAAAAAAAAAAAAAAAAAAAAAAAAAAAAAAAAAAAAAAAAAAAAAAAAAAAAAAAAAAAAAAAAAAAAAAAAAAAAAAAAAAAAAAAAAAAAAAAAAAAAAAAAAAAAAAAAAAAAAAAAAAAAAAAAAAAAAAAAAAAAAAAAAAAAAAAAAAAAAAAAAAAAAAAAAAAAAAAAAAAAAAAAAAAAAAAAAAAAAAAAAAAAAAAAAAAAAAAAAAAAAAAAAAAAAAAAAAAAAAAAAAAAAAAAAAAAAAAAAAAAAAAAAAAAAAAAAAAAAAAAAAAAAAAAAAAAAAAAAAAAAAAAAAAAAAAAAAAAAAAAAAAAAAAAAAAAAAAAAAAAAAAAAAAAAAAAAAAAAAAAAAAAAAAAAAAAAAAAAAAAAAAAAAAAAAAAAAAAAAAAAAAAAAAAAAAAAAAAAAAAAAAAAAAAAAAAAAAAAAAAAAAAAAAAAAAAAAAAAAAAAAAAAAAAAAAAAAAAAAAAAAAAAAAAAAAAAAAAAAAAAAAAAAAAAAAAAAAAAAAAAAAAAAAAAAAAAAAAAAAAAAAAAAAAAAAAAAAAAAAAAAAAAAAAAAAAAAAAAAAAAAAAAAAAAAAAAAAAAAAAAAAAAAAAAAAAAAAAAAAAAAAAAAAAAAAAAAAAAAAAAAAAAAAAAAAAAAAAAAAAAAAAAAAAAAAAAAAAAAAAAAAAAAAAAAAAAAAAAAAAAAAAAAAAAAAAAAAAAAAAAAAAAAAAAAAAAAAAAAAAAAAAAAAAAAAAAAAAAAAAAAAAAAAAAAAAAAAAAAAAAAAAAAAAAAAAAAAAAAAAAAAAAAAAAAAAAAAAAAAAAAAAAAAAAAAAAAAAAAAAAAAAAAAAAAAAAAAAAAAAAAAAAAAAAAAAAAAAAAAAAAAAAAAAAAAAAAAAAAAAAAAAAAAAAAAAAAAAAAAAAAAAAAAAAAAAAAAAAAAAAAAAAAAAAAAAAAAAAAAAAAAAAAAAAAAAAAAAAAAAAAAAAAAAAAAAAAAAAAAAAAAAAAAAAAAAAAAAAAAAAAAAAAAAAAAAAAAAAAAAAAAAAAAAAAAAAAAAAAAAAAAAAAAAAAAAAAAAAAAAAAAAAAAAAAAAAAAAAAAAAAAAAAAAAAAAAAAAAAAAAAAAAAAAAAAAAAAAAAAAAAAAAAAAAAAAAAAAAAAAAAAAAAAAAAAAAAAAAAAAAAAAAAAAAAAAAAAAAAAAAAAAAAAAAAAAAAAAAAAAAAAAAAAAAAAAAAAAAAAAAAAAAAAAAAAAAAAAAAAAAAAAAAAAAAAAAAAAAAAAAAAAAAAAAAAAAAAAAAAAAAAAAAAAAAAAAAAAAAAAAAAAAAAAAAAAAAAAAAAAAAAAAAAAAAAAAAAAAAAAAAAAAAAAAAAAAAAAAAAAAAAAAAAAAAAAAAAAAAAAAAAAAAAAAAAAAAAAAAAAAAAAAAAAAAAAAAAAAAAAAAAAAAAAAAAAAAAAAAAAAAAAAAAAAAAAAAAAAAAAAAAAAAAAAAAAAAAAAAAAAAAAAAAAAAAAAAAAAAAAAAAAAAAAAAAAAAAAAAAAAAAAAAAAAAAAAAAAAAAAAAAAAAAAAAAAAAAAAAAAAAAAAAAAAAAAAAAAAAAAAAAAAAAAAAAAAAAAAAAAAAAAAAAAAAAAAAAAAAAAAAAAAAAAAAAAAAAAAAAAAAAAAAAAAAAAAAAAAAAAAAAAAAAAAAAAAAAAAAAAAAAAAAAAAAAAAAAAAAAAAAAAAAAAAAAAAAAAAAAAAAAAAAAAAAAAAAAAAAAAAAAAAAAAAAAAAAAAAAAAAAAAAAAAAAAAAAAAAAAAAAAAAAAAAAAAAAAAAAAAAAAAAAAAAAAAAAAAAAAAAAAAAAAAAAAAAAAAAAAAAAAAAAAAAAAAAAAAAAAAAAAAAAAAAAAAAAAAAAAAAAAAAAAAAAAAAAAAAAAAAAAAAAAAAAAAAAAAAAAAAAAAAAAAAAAAAAAAAAAAAAAAAAAAAAAAAAAAAAAAAAAAAAAAAAAAAAAAAAAAAAAAAAAAAAAAAAAAAAAAAAAAAAAAAAAAAAAAAAAAAAAAAAAAAAAAAAAAAAAAAAAAAAAAAAAAAAAAAAAAAAAAAAAAAAAAAAAAAAAAAAAAAAAAAAAAAAAAAAAAAAAAAAAAAAAAAAAAAAAAAAAAAAAAAAAAAAAAAAAAAAAAAAAAAAAAAAAAAAAAAAAAAAAAAAAAAAAAAAAAAAAAAAAAAAAAAAAAAAAAAAAAAAAAAAAAAAAAAAAAAAAAAAAAAAAAAAAAAAAAAAAAAAAAAAAAAAAAAAAAAAAAAAAAAAAAAAAAAAAAAAAAAAAAAAAAAAAAAAAAAAAAAAAAAAAAAAAAAAAAAAAAAAAAAAAAAAAAAAAAAAAAAAAAAAAAAAAAAAAAAAAAAAAAAAAAAAAAAAAAAAAAAAAAAAAAAAAAAAAAAAAAAAAAAAAAAAAAAAAAAAAAAAAAAAAAAAAAAAAAAAAAAAAAAAAAAAAAAAAAAAAAAAAAAAAAAAAAAAAAAAAAAAAAAAAAAAAAAAAAAAAAAAAAAAAAAAAAAAAAAAAAAAAAAAAAAAAAAAAAAAAAAAAAAAAAAAAAAAAAAAAAAAAAAAAAAAAAAAAAAAAAAAAAAAAAAAAAAAAAAAAAAAAAAAAAAAAAAAAAAAAAAAAAAAAAAAAAAAAAAAAAAAAAAAAAAAAAAAAAAAAAAAAAAAAAAAAAAAAAAAAAAAAAAAAAAAAAAAAAAAAAAAAAAAAAAAAAAAAAAAAAAAAAAAAAAAAAAAAAAAAAAAAAAAAAAAAAAAAAAAAAAAAAAAAAAAAAAAAAAAAAAAAAAAAAAAAAAAAAAAAAAAAAAAAAAAAAAAAAAAAAAAAAAAAAAAAAAAAAAAAAAAAAAAAAAAAAAAAAAAAAAAAAAAAAAAAAAAAAAAAAAAAAAAAAAAAAAAAAAAAAAAAAAAAAAAAAAAAAAAAAAAAAAAAAAAAAAAAAAAAAAAAAAAAAAAAAAAAAAAAAAAAAAAAAAAAAAAAAAAAAAAAAAAAAAAAAAAAAAAAAAAAAAAAAAAAAAAAAAAAAAAAAAAAAAAAAAAAAAAAAAAAAAAAAAAAAAAAAAAAAAAAAAAAAAAAAAAAAAAAAAAAAAAAAAAAAAAAAAAAAAAAAAAAAAAAAAAAAAAAAAAAAAAAAAAAAAAAAAAAAAAAAAAAAAAAAAAAAAAAAAAAAAAAAAAAAAAAAAAAAAAAAAAAAAAAAAAAAAAAAAAAAAAAAAAAAAAAAAAAAAAAAAAAAAAAAAAAAAAAAAAAAAAAAAAAAAAAAAAAAAAAAAAAAAAAAAAAAAAAAAAAAAAAAAAAAAAAAAAAAAAAAAAAAAAAAAAAAAAAAAAAAAAAAAAAAAAAAAAAAAAAAAAAAAAAAAAAAAAAAAAAAAAAAAAAAAAAAAAAAAAAAAAAAAAAAAAAAAAAAAAAAAAAAAAAAAAAAAAAAAAAAAAAAAAAAAAAAAAAAAAAAAAAAAAAAAAAAAAAAAAAAAAAAAAAAAAAAAAAAAAAAAAAAAAAAAAAAAAAAAAAAAAAAAAAAAAAAAAAAAAAAAAAAAAAAAAAAAAAAAAAAAAAAAAAAAAAAAAAAAAAAAAAAAAAAAAAAAAAAAAAAAAAAAAAAAAAAAAAAAAAAAAAAAAAAAAAAAAAAAAAAAAAAAAAAAAAAAAAAAAAAAAAAAAAAAAAAAAAAAAAAAAAAAAAAAAAAAAAAAAAAAAAAAAAAAAAAAAAAAAAAAAAAAAAAAAAAAAAAAAAAAAAAAAAAAAAAAAAAAAAAAAAAAAAAAAAAAAAAAAAAAAAAAAAAAAAAAAAAAAAAAAAAAAAAAAAAAAAAAAAAAAAAAAAAAAAAAAAAAAAAAAAAAAAAAAAAAAAAAAAAAAAAAAAAAAAAAAAAAAAAAAAAAAAAAAAAAAAAAAAAAAAAAAAAAAAAAAAAAAAAAAAAAAAAAAAAAAAAAAAAAAAAAAAAAAAAAAAAAAAAAAAAAAAAAAAAAAAAAAAAAAAAAAAAAAAAAAAAAAAAAAAAAAAAAAAAAAAAAAAAAAAAAAAAAAAAAAAAAAAAAAAAAAAAAAAAAAAAAAAAAAAAAAAAAAAAAAAAAAAAAAAAAAAAAAAAAAAAAAAAAAAAAAAAAAAAAAAAAAAAAAAAAAAAAAAAAAAAAAAAAAAAAAAAAAAAAAAAAAAAAAAAAAAAAAAAAAAAAAAAAAAAAAAAAAAAAAAAAAAAAAAAAAAAAAAAAAAAAAAAAAAAAAAAAAAAAAAAAAAAAAAAAAAAAAAAAAAAAAAAAAAAAAAAAAAAAAAAAAAAAAAAAAAAAAAAAAAAAAAAAAAAAAAAAAAAAAAAAAAAAAAAAAAPZYQHp7ndD2lLiIl6C8QOOcCvKEMBa/w+QVydaOrc83CiUu9E7X4SdN1Q136M/RZ+RnUIqNysND/HQ4Tk5VDkaIFR0=</c2pa:manifest></metadata>
<defs>
<radialGradient id="g" cx="18%" cy="12%" r="95%"><stop offset="0" stop-color="#242840"></stop><stop offset="1" stop-color="#161826"></stop></radialGradient>
<pattern id="p" width="410" height="420" patternUnits="userSpaceOnUse" patternTransform="rotate(-6)">
<g fill="none" stroke="rgba(145,132,217,.35)" stroke-width="1.5" stroke-linecap="round" stroke-linejoin="round"><g transform="translate(62 52) rotate(-6) scale(1.1)"><path d="M0,-20 C11,-20 17,-12 17,-3 C17,4 13,8 13,13 C13,18 8,20 0,20 C-8,20 -13,18 -13,13 C-13,8 -17,4 -17,-3 C-17,-12 -11,-20 0,-20 Z"></path><circle cx="-6.5" cy="-6" r="4.2"></circle><circle cx="6.5" cy="-6" r="4.2"></circle><path d="M0,0 -2.5,5 0,6.5 2.5,5 Z"></path><path d="M-7,13 7,13"></path><path d="M-3.5,10 -3.5,16 M0,10 0,16 M3.5,10 3.5,16"></path></g>
<g transform="translate(176 48) rotate(0) scale(1)"><path d="M-22,10 C-22,4 -14,1 0,1 C14,1 22,4 22,10 C22,15 12,18 0,18 C-12,18 -22,15 -22,10 Z"></path><path d="M-11,3 C-11,-10 -6,-18 0,-18 C6,-18 11,-10 11,3"></path><path d="M-11,-1 C-6,-3 6,-3 11,-1" stroke-opacity=".6"></path><path d="M-18,9 C-10,13 10,13 18,9" stroke-opacity=".45"></path></g>
<g transform="translate(284 40) rotate(148) scale(0.9)"><path d="M-4,-10 C7,-8 12,3 6,14 C1,23 -10,21 -11,12 C-12,4 -9,-5 -4,-10 Z"></path><path d="M-4,-10 -5,-17"></path><path d="M-5,-17 C-9,-19 -14,-17 -15,-12"></path><path d="M1,-4 C5,3 4,10 0,15" stroke-opacity=".45"></path></g>
<g transform="translate(360 58) rotate(0) scale(0.85)"><path d="M-5,22 C-6,10 -6,-4 -6,-13 C-6,-19 6,-19 6,-13 C6,-4 6,10 5,22 Z"></path><path d="M-6,0 C-12,0 -15,-3 -15,-8 C-15,-12 -19,-12 -19,-8 C-19,3 -13,7 -6,7"></path><path d="M6,-4 C12,-4 15,-7 15,-12 C15,-16 19,-16 19,-12 C19,-1 13,3 6,3"></path><path d="M-8,22 8,22"></path><path d="M0,-14 0,16" stroke-opacity=".4"></path></g>
<g transform="translate(54 140) rotate(0) scale(0.95)"><path d="M-9,22 C-11,10 -9,2 -9,-2 L-9,-9 -4,-14 -4,-22 4,-22 4,-14 9,-9 9,-2 C9,2 11,10 9,22 Z"></path><path d="M-9,2 9,2" stroke-opacity=".55"></path><path d="M-9,10 9,10" stroke-opacity=".55"></path><path d="M-6,6 -3,6 M-1,6 2,6 M4,6 7,6" stroke-opacity=".4"></path></g>
<g transform="translate(160 152) rotate(-8) scale(1.05)"><path d="M0,-2 C7,-2 11,3 11,9 C11,16 6,21 0,21 C-6,21 -11,16 -11,9 C-11,3 -7,-2 0,-2 Z"></path><path d="M-8,-1 C-9,-6 -6,-10 0,-10 C6,-10 9,-6 8,-1"></path><circle cx="0" cy="8" r="4"></circle><path d="M-2.5,-10 -2.5,-22 2.5,-22 2.5,-10"></path><path d="M-4,-22 4,-22"></path><path d="M-1.4,-9 -1.4,5 M1.4,-9 1.4,5" stroke-opacity=".45"></path></g>
<g transform="translate(272 146) rotate(10) scale(0.85)"><path d="M0,-20 C11,-20 17,-12 17,-3 C17,4 13,8 13,13 C13,18 8,20 0,20 C-8,20 -13,18 -13,13 C-13,8 -17,4 -17,-3 C-17,-12 -11,-20 0,-20 Z"></path><circle cx="-6.5" cy="-6" r="4.2"></circle><circle cx="6.5" cy="-6" r="4.2"></circle><path d="M0,0 -2.5,5 0,6.5 2.5,5 Z"></path><path d="M-7,13 7,13"></path><path d="M-3.5,10 -3.5,16 M0,10 0,16 M3.5,10 3.5,16"></path></g>
<g transform="translate(362 152) rotate(-6) scale(0.8)"><path d="M-22,10 C-22,4 -14,1 0,1 C14,1 22,4 22,10 C22,15 12,18 0,18 C-12,18 -22,15 -22,10 Z"></path><path d="M-11,3 C-11,-10 -6,-18 0,-18 C6,-18 11,-10 11,3"></path><path d="M-11,-1 C-6,-3 6,-3 11,-1" stroke-opacity=".6"></path><path d="M-18,9 C-10,13 10,13 18,9" stroke-opacity=".45"></path></g>
<g transform="translate(58 242) rotate(0) scale(1)"><path d="M-5,22 C-6,10 -6,-4 -6,-13 C-6,-19 6,-19 6,-13 C6,-4 6,10 5,22 Z"></path><path d="M-6,0 C-12,0 -15,-3 -15,-8 C-15,-12 -19,-12 -19,-8 C-19,3 -13,7 -6,7"></path><path d="M6,-4 C12,-4 15,-7 15,-12 C15,-16 19,-16 19,-12 C19,-1 13,3 6,3"></path><path d="M-8,22 8,22"></path><path d="M0,-14 0,16" stroke-opacity=".4"></path></g>
<g transform="translate(152 246) rotate(18) scale(0.95)"><path d="M-4,-10 C7,-8 12,3 6,14 C1,23 -10,21 -11,12 C-12,4 -9,-5 -4,-10 Z"></path><path d="M-4,-10 -5,-17"></path><path d="M-5,-17 C-9,-19 -14,-17 -15,-12"></path><path d="M1,-4 C5,3 4,10 0,15" stroke-opacity=".45"></path></g>
<g transform="translate(250 252) rotate(8) scale(0.9)"><path d="M-22,10 C-22,4 -14,1 0,1 C14,1 22,4 22,10 C22,15 12,18 0,18 C-12,18 -22,15 -22,10 Z"></path><path d="M-11,3 C-11,-10 -6,-18 0,-18 C6,-18 11,-10 11,3"></path><path d="M-11,-1 C-6,-3 6,-3 11,-1" stroke-opacity=".6"></path><path d="M-18,9 C-10,13 10,13 18,9" stroke-opacity=".45"></path></g>
<g transform="translate(348 250) rotate(0) scale(0.85)"><path d="M-9,22 C-11,10 -9,2 -9,-2 L-9,-9 -4,-14 -4,-22 4,-22 4,-14 9,-9 9,-2 C9,2 11,10 9,22 Z"></path><path d="M-9,2 9,2" stroke-opacity=".55"></path><path d="M-9,10 9,10" stroke-opacity=".55"></path><path d="M-6,6 -3,6 M-1,6 2,6 M4,6 7,6" stroke-opacity=".4"></path></g>
<g transform="translate(60 348) rotate(10) scale(0.9)"><path d="M0,-2 C7,-2 11,3 11,9 C11,16 6,21 0,21 C-6,21 -11,16 -11,9 C-11,3 -7,-2 0,-2 Z"></path><path d="M-8,-1 C-9,-6 -6,-10 0,-10 C6,-10 9,-6 8,-1"></path><circle cx="0" cy="8" r="4"></circle><path d="M-2.5,-10 -2.5,-22 2.5,-22 2.5,-10"></path><path d="M-4,-22 4,-22"></path><path d="M-1.4,-9 -1.4,5 M1.4,-9 1.4,5" stroke-opacity=".45"></path></g>
<g transform="translate(148 354) rotate(0) scale(0.85)"><path d="M-9,22 C-11,10 -9,2 -9,-2 L-9,-9 -4,-14 -4,-22 4,-22 4,-14 9,-9 9,-2 C9,2 11,10 9,22 Z"></path><path d="M-9,2 9,2" stroke-opacity=".55"></path><path d="M-9,10 9,10" stroke-opacity=".55"></path><path d="M-6,6 -3,6 M-1,6 2,6 M4,6 7,6" stroke-opacity=".4"></path></g>
<g transform="translate(248 350) rotate(0) scale(0.85)"><path d="M-5,22 C-6,10 -6,-4 -6,-13 C-6,-19 6,-19 6,-13 C6,-4 6,10 5,22 Z"></path><path d="M-6,0 C-12,0 -15,-3 -15,-8 C-15,-12 -19,-12 -19,-8 C-19,3 -13,7 -6,7"></path><path d="M6,-4 C12,-4 15,-7 15,-12 C15,-16 19,-16 19,-12 C19,-1 13,3 6,3"></path><path d="M-8,22 8,22"></path><path d="M0,-14 0,16" stroke-opacity=".4"></path></g>
<g transform="translate(348 346) rotate(-10) scale(0.9)"><path d="M0,-20 C11,-20 17,-12 17,-3 C17,4 13,8 13,13 C13,18 8,20 0,20 C-8,20 -13,18 -13,13 C-13,8 -17,4 -17,-3 C-17,-12 -11,-20 0,-20 Z"></path><circle cx="-6.5" cy="-6" r="4.2"></circle><circle cx="6.5" cy="-6" r="4.2"></circle><path d="M0,0 -2.5,5 0,6.5 2.5,5 Z"></path><path d="M-7,13 7,13"></path><path d="M-3.5,10 -3.5,16 M0,10 0,16 M3.5,10 3.5,16"></path></g>
<g transform="translate(210 196) rotate(-20) scale(0.7)"><path d="M-4,-10 C7,-8 12,3 6,14 C1,23 -10,21 -11,12 C-12,4 -9,-5 -4,-10 Z"></path><path d="M-4,-10 -5,-17"></path><path d="M-5,-17 C-9,-19 -14,-17 -15,-12"></path><path d="M1,-4 C5,3 4,10 0,15" stroke-opacity=".45"></path></g>
<g transform="translate(108 196) rotate(160) scale(0.7)"><path d="M-4,-10 C7,-8 12,3 6,14 C1,23 -10,21 -11,12 C-12,4 -9,-5 -4,-10 Z"></path><path d="M-4,-10 -5,-17"></path><path d="M-5,-17 C-9,-19 -14,-17 -15,-12"></path><path d="M1,-4 C5,3 4,10 0,15" stroke-opacity=".45"></path></g></g></pattern>
<pattern id="p2" width="410" height="420" patternUnits="userSpaceOnUse" patternTransform="rotate(-6) scale(2.2) translate(100 50)">
<g fill="none" stroke="rgba(196,199,216,.11)" stroke-width="1" stroke-linecap="round" stroke-linejoin="round"><g transform="translate(62 52) rotate(-6) scale(1.1)"><path d="M0,-20 C11,-20 17,-12 17,-3 C17,4 13,8 13,13 C13,18 8,20 0,20 C-8,20 -13,18 -13,13 C-13,8 -17,4 -17,-3 C-17,-12 -11,-20 0,-20 Z"></path><circle cx="-6.5" cy="-6" r="4.2"></circle><circle cx="6.5" cy="-6" r="4.2"></circle><path d="M0,0 -2.5,5 0,6.5 2.5,5 Z"></path><path d="M-7,13 7,13"></path><path d="M-3.5,10 -3.5,16 M0,10 0,16 M3.5,10 3.5,16"></path></g>
<g transform="translate(176 48) rotate(0) scale(1)"><path d="M-22,10 C-22,4 -14,1 0,1 C14,1 22,4 22,10 C22,15 12,18 0,18 C-12,18 -22,15 -22,10 Z"></path><path d="M-11,3 C-11,-10 -6,-18 0,-18 C6,-18 11,-10 11,3"></path><path d="M-11,-1 C-6,-3 6,-3 11,-1" stroke-opacity=".6"></path><path d="M-18,9 C-10,13 10,13 18,9" stroke-opacity=".45"></path></g>
<g transform="translate(284 40) rotate(148) scale(0.9)"><path d="M-4,-10 C7,-8 12,3 6,14 C1,23 -10,21 -11,12 C-12,4 -9,-5 -4,-10 Z"></path><path d="M-4,-10 -5,-17"></path><path d="M-5,-17 C-9,-19 -14,-17 -15,-12"></path><path d="M1,-4 C5,3 4,10 0,15" stroke-opacity=".45"></path></g>
<g transform="translate(360 58) rotate(0) scale(0.85)"><path d="M-5,22 C-6,10 -6,-4 -6,-13 C-6,-19 6,-19 6,-13 C6,-4 6,10 5,22 Z"></path><path d="M-6,0 C-12,0 -15,-3 -15,-8 C-15,-12 -19,-12 -19,-8 C-19,3 -13,7 -6,7"></path><path d="M6,-4 C12,-4 15,-7 15,-12 C15,-16 19,-16 19,-12 C19,-1 13,3 6,3"></path><path d="M-8,22 8,22"></path><path d="M0,-14 0,16" stroke-opacity=".4"></path></g>
<g transform="translate(54 140) rotate(0) scale(0.95)"><path d="M-9,22 C-11,10 -9,2 -9,-2 L-9,-9 -4,-14 -4,-22 4,-22 4,-14 9,-9 9,-2 C9,2 11,10 9,22 Z"></path><path d="M-9,2 9,2" stroke-opacity=".55"></path><path d="M-9,10 9,10" stroke-opacity=".55"></path><path d="M-6,6 -3,6 M-1,6 2,6 M4,6 7,6" stroke-opacity=".4"></path></g>
<g transform="translate(160 152) rotate(-8) scale(1.05)"><path d="M0,-2 C7,-2 11,3 11,9 C11,16 6,21 0,21 C-6,21 -11,16 -11,9 C-11,3 -7,-2 0,-2 Z"></path><path d="M-8,-1 C-9,-6 -6,-10 0,-10 C6,-10 9,-6 8,-1"></path><circle cx="0" cy="8" r="4"></circle><path d="M-2.5,-10 -2.5,-22 2.5,-22 2.5,-10"></path><path d="M-4,-22 4,-22"></path><path d="M-1.4,-9 -1.4,5 M1.4,-9 1.4,5" stroke-opacity=".45"></path></g>
<g transform="translate(272 146) rotate(10) scale(0.85)"><path d="M0,-20 C11,-20 17,-12 17,-3 C17,4 13,8 13,13 C13,18 8,20 0,20 C-8,20 -13,18 -13,13 C-13,8 -17,4 -17,-3 C-17,-12 -11,-20 0,-20 Z"></path><circle cx="-6.5" cy="-6" r="4.2"></circle><circle cx="6.5" cy="-6" r="4.2"></circle><path d="M0,0 -2.5,5 0,6.5 2.5,5 Z"></path><path d="M-7,13 7,13"></path><path d="M-3.5,10 -3.5,16 M0,10 0,16 M3.5,10 3.5,16"></path></g>
<g transform="translate(362 152) rotate(-6) scale(0.8)"><path d="M-22,10 C-22,4 -14,1 0,1 C14,1 22,4 22,10 C22,15 12,18 0,18 C-12,18 -22,15 -22,10 Z"></path><path d="M-11,3 C-11,-10 -6,-18 0,-18 C6,-18 11,-10 11,3"></path><path d="M-11,-1 C-6,-3 6,-3 11,-1" stroke-opacity=".6"></path><path d="M-18,9 C-10,13 10,13 18,9" stroke-opacity=".45"></path></g>
<g transform="translate(58 242) rotate(0) scale(1)"><path d="M-5,22 C-6,10 -6,-4 -6,-13 C-6,-19 6,-19 6,-13 C6,-4 6,10 5,22 Z"></path><path d="M-6,0 C-12,0 -15,-3 -15,-8 C-15,-12 -19,-12 -19,-8 C-19,3 -13,7 -6,7"></path><path d="M6,-4 C12,-4 15,-7 15,-12 C15,-16 19,-16 19,-12 C19,-1 13,3 6,3"></path><path d="M-8,22 8,22"></path><path d="M0,-14 0,16" stroke-opacity=".4"></path></g>
<g transform="translate(152 246) rotate(18) scale(0.95)"><path d="M-4,-10 C7,-8 12,3 6,14 C1,23 -10,21 -11,12 C-12,4 -9,-5 -4,-10 Z"></path><path d="M-4,-10 -5,-17"></path><path d="M-5,-17 C-9,-19 -14,-17 -15,-12"></path><path d="M1,-4 C5,3 4,10 0,15" stroke-opacity=".45"></path></g>
<g transform="translate(250 252) rotate(8) scale(0.9)"><path d="M-22,10 C-22,4 -14,1 0,1 C14,1 22,4 22,10 C22,15 12,18 0,18 C-12,18 -22,15 -22,10 Z"></path><path d="M-11,3 C-11,-10 -6,-18 0,-18 C6,-18 11,-10 11,3"></path><path d="M-11,-1 C-6,-3 6,-3 11,-1" stroke-opacity=".6"></path><path d="M-18,9 C-10,13 10,13 18,9" stroke-opacity=".45"></path></g>
<g transform="translate(348 250) rotate(0) scale(0.85)"><path d="M-9,22 C-11,10 -9,2 -9,-2 L-9,-9 -4,-14 -4,-22 4,-22 4,-14 9,-9 9,-2 C9,2 11,10 9,22 Z"></path><path d="M-9,2 9,2" stroke-opacity=".55"></path><path d="M-9,10 9,10" stroke-opacity=".55"></path><path d="M-6,6 -3,6 M-1,6 2,6 M4,6 7,6" stroke-opacity=".4"></path></g>
<g transform="translate(60 348) rotate(10) scale(0.9)"><path d="M0,-2 C7,-2 11,3 11,9 C11,16 6,21 0,21 C-6,21 -11,16 -11,9 C-11,3 -7,-2 0,-2 Z"></path><path d="M-8,-1 C-9,-6 -6,-10 0,-10 C6,-10 9,-6 8,-1"></path><circle cx="0" cy="8" r="4"></circle><path d="M-2.5,-10 -2.5,-22 2.5,-22 2.5,-10"></path><path d="M-4,-22 4,-22"></path><path d="M-1.4,-9 -1.4,5 M1.4,-9 1.4,5" stroke-opacity=".45"></path></g>
<g transform="translate(148 354) rotate(0) scale(0.85)"><path d="M-9,22 C-11,10 -9,2 -9,-2 L-9,-9 -4,-14 -4,-22 4,-22 4,-14 9,-9 9,-2 C9,2 11,10 9,22 Z"></path><path d="M-9,2 9,2" stroke-opacity=".55"></path><path d="M-9,10 9,10" stroke-opacity=".55"></path><path d="M-6,6 -3,6 M-1,6 2,6 M4,6 7,6" stroke-opacity=".4"></path></g>
<g transform="translate(248 350) rotate(0) scale(0.85)"><path d="M-5,22 C-6,10 -6,-4 -6,-13 C-6,-19 6,-19 6,-13 C6,-4 6,10 5,22 Z"></path><path d="M-6,0 C-12,0 -15,-3 -15,-8 C-15,-12 -19,-12 -19,-8 C-19,3 -13,7 -6,7"></path><path d="M6,-4 C12,-4 15,-7 15,-12 C15,-16 19,-16 19,-12 C19,-1 13,3 6,3"></path><path d="M-8,22 8,22"></path><path d="M0,-14 0,16" stroke-opacity=".4"></path></g>
<g transform="translate(348 346) rotate(-10) scale(0.9)"><path d="M0,-20 C11,-20 17,-12 17,-3 C17,4 13,8 13,13 C13,18 8,20 0,20 C-8,20 -13,18 -13,13 C-13,8 -17,4 -17,-3 C-17,-12 -11,-20 0,-20 Z"></path><circle cx="-6.5" cy="-6" r="4.2"></circle><circle cx="6.5" cy="-6" r="4.2"></circle><path d="M0,0 -2.5,5 0,6.5 2.5,5 Z"></path><path d="M-7,13 7,13"></path><path d="M-3.5,10 -3.5,16 M0,10 0,16 M3.5,10 3.5,16"></path></g>
<g transform="translate(210 196) rotate(-20) scale(0.7)"><path d="M-4,-10 C7,-8 12,3 6,14 C1,23 -10,21 -11,12 C-12,4 -9,-5 -4,-10 Z"></path><path d="M-4,-10 -5,-17"></path><path d="M-5,-17 C-9,-19 -14,-17 -15,-12"></path><path d="M1,-4 C5,3 4,10 0,15" stroke-opacity=".45"></path></g>
<g transform="translate(108 196) rotate(160) scale(0.7)"><path d="M-4,-10 C7,-8 12,3 6,14 C1,23 -10,21 -11,12 C-12,4 -9,-5 -4,-10 Z"></path><path d="M-4,-10 -5,-17"></path><path d="M-5,-17 C-9,-19 -14,-17 -15,-12"></path><path d="M1,-4 C5,3 4,10 0,15" stroke-opacity=".45"></path></g></g></pattern>
<linearGradient id="veil" x1="0" y1="0" x2="1" y2="0.22">
<stop offset="0" stop-color="#0f1120" stop-opacity=".94"></stop><stop offset=".52" stop-color="#0f1120" stop-opacity=".76"></stop><stop offset="1" stop-color="#0f1120" stop-opacity=".36"></stop></linearGradient>
</defs>
<rect width="1200" height="1400" fill="url(#g)"></rect>
<rect width="1200" height="1400" fill="url(#p2)"></rect>
<rect width="1200" height="1400" fill="url(#p)"></rect>
<rect width="1200" height="1400" fill="url(#veil)"></rect>
</svg>